<svg xmlns="http://www.w3.org/2000/svg" width="274pt" height="188pt" viewBox="0 0 274.2 188">
    <g class="graph">
        <path fill="#fff" d="M0 188V0h274.2v188z"/>
        <g class="node" transform="translate(4 184)">
            <ellipse cx="92.45" cy="-162" fill="none" stroke="#000" rx="60.05" ry="18"/>
            <text x="92.45" y="-156.95" font-family="Times,serif" font-size="14" text-anchor="middle">:core:domain</text>
        </g>
        <g class="node" transform="translate(4 184)">
            <ellipse cx="55.45" cy="-18" fill="none" stroke="#000" rx="55.45" ry="18"/>
            <text x="55.45" y="-12.95" font-family="Times,serif" font-size="14" text-anchor="middle">:core:model</text>
        </g>
        <g stroke="#000" class="edge">
            <path fill="none" d="M90.1 40.03C86.39 50.34 81.8 63.82 78.45 76c-5.53 20.05-10.39 43.01-13.82 60.59"/>
            <path d="m68.09 137.14-5.31 9.17-1.57-10.48z"/>
        </g>
        <g class="node" transform="translate(4 184)">
            <ellipse cx="130.45" cy="-90" fill="none" stroke="#000" rx="47.26" ry="18"/>
            <text x="130.45" y="-84.95" font-family="Times,serif" font-size="14" text-anchor="middle">:core:data</text>
        </g>
        <g stroke="red" stroke-width="2" class="edge">
            <path fill="none" d="M105.64 39.95c4.3 7.91 9.51 17.51 14.32 26.36"/>
            <path fill="red" d="m122.19 63.09 1.7 10.46-7.85-7.12z"/>
        </g>
        <g stroke="#000" class="edge">
            <path fill="none" d="M117.43 110.88c-9.55 8.92-21.66 20.21-32.33 30.18"/>
            <path d="m87.72 143.4-9.7 4.26 4.93-9.38z"/>
        </g>
        <g class="node" transform="translate(4 184)">
            <ellipse cx="197.45" cy="-18" fill="none" stroke="#000" rx="68.75" ry="18"/>
            <text x="197.45" y="-12.95" font-family="Times,serif" font-size="14" text-anchor="middle">:core:commons</text>
        </g>
        <g stroke="red" stroke-width="2" class="edge">
            <path fill="none" d="M149.99 111.24c8.25 8.62 18.56 19.4 27.79 29.03"/>
            <path fill="red" d="m179.05 136.54 4.38 9.64-9.44-4.8z"/>
        </g>
    </g>
</svg>
