<svg xmlns="http://www.w3.org/2000/svg" width="1456pt" height="404pt" viewBox="0 0 1456 404">
    <g class="graph">
        <path fill="#fff" d="M0 404V0h1456v404z"/>
        <g class="node" transform="translate(4 400)">
            <ellipse cx="767" cy="-378" fill="none" stroke="#000" rx="27" ry="18"/>
            <text x="767" y="-372.95" font-family="Times,serif" font-size="14" text-anchor="middle">:app</text>
        </g>
        <g class="node" transform="translate(4 400)">
            <ellipse cx="818" cy="-18" fill="none" stroke="#000" rx="68.75" ry="18"/>
            <text x="818" y="-12.95" font-family="Times,serif" font-size="14" text-anchor="middle">:core:commons</text>
        </g>
        <g stroke="#000" class="edge">
            <path fill="none" d="M798.12 22.77C924.77 22.39 1452 28.98 1452 165v74c0 111.52-380.42 135.47-550.03 140.6"/>
            <path d="m902.23 383.1-10.1-3.22 9.9-3.78z"/>
        </g>
        <g class="node" transform="translate(4 400)">
            <ellipse cx="743" cy="-90" fill="none" stroke="#000" rx="47.26" ry="18"/>
            <text x="743" y="-84.95" font-family="Times,serif" font-size="14" text-anchor="middle">:core:data</text>
        </g>
        <g stroke="#000" class="edge">
            <path fill="none" d="M780.58 39.1C791.52 57.2 810.21 87.28 828 112c12 16.68 22.17 16.62 29 36 5.32 15.09 5.65 21.03 0 36-16.05 42.52-53.87 79.96-80.68 102.53"/>
            <path d="m778.83 289-9.96 3.63 5.52-9.04z"/>
        </g>
        <g class="node" transform="translate(4 400)">
            <ellipse cx="644" cy="-162" fill="none" stroke="#000" rx="60.05" ry="18"/>
            <text x="644" y="-156.95" font-family="Times,serif" font-size="14" text-anchor="middle">:core:domain</text>
        </g>
        <g stroke="#000" class="edge">
            <path fill="none" d="M754.28 36.33C729.37 57.22 683.09 100.25 661 148c-8.78 18.97-11.93 42.45-12.94 60.52"/>
            <path d="m651.57 208.4-3.85 9.87-3.15-10.12z"/>
        </g>
        <g class="node" transform="translate(4 400)">
            <ellipse cx="1219" cy="-162" fill="none" stroke="#000" rx="82.06" ry="18"/>
            <text x="1219" y="-156.95" font-family="Times,serif" font-size="14" text-anchor="middle">:core:designsystem</text>
        </g>
        <g stroke="#000" class="edge">
            <path fill="none" d="M798.32 23.83C855.17 26.34 989.61 36.35 1094 76c56.02 21.28 80.8 22.11 114 72 11.82 17.76 15.31 41.81 15.99 60.43"/>
            <path d="m1227.49 208.22-3.42 10.03-3.58-9.97z"/>
        </g>
        <g class="node" transform="translate(4 400)">
            <ellipse cx="342" cy="-18" fill="none" stroke="#000" rx="55.45" ry="18"/>
            <text x="342" y="-12.95" font-family="Times,serif" font-size="14" text-anchor="middle">:core:model</text>
        </g>
        <g stroke="#000" class="edge">
            <path fill="none" d="M743.82 22.96C634.32 23.11 225.83 27.04 108 76 51.82 99.34 4 104.16 4 165v74c0 60.84 186.92 109.33 284.38 130.48"/>
            <path d="m288.99 366.03 9.05 5.52-10.51 1.33z"/>
        </g>
        <g class="node" transform="translate(4 400)">
            <ellipse cx="392" cy="-234" fill="none" stroke="#000" rx="60.05" ry="18"/>
            <text x="392" y="-228.95" font-family="Times,serif" font-size="14" text-anchor="middle">:core:logging</text>
        </g>
        <g stroke="#000" class="edge">
            <path fill="none" d="M744.21 25.38C679.7 31.49 517.63 49.13 471 76c-25.61 14.76-46.44 41.71-59.59 62.1"/>
            <path d="m414.45 139.84-8.24 6.66 2.29-10.35z"/>
        </g>
        <g class="node" transform="translate(4 400)">
            <ellipse cx="295" cy="-306" fill="none" stroke="#000" rx="53.91" ry="18"/>
            <text x="295" y="-300.95" font-family="Times,serif" font-size="14" text-anchor="middle">:data:recipe</text>
        </g>
        <g stroke="red" stroke-width="2" class="edge">
            <path fill="none" d="M744.65 26.62C684.2 34.96 530.92 56.34 403 76c-14.77 2.27-30.7 4.82-45.55 7.25"/>
            <path fill="red" d="m359.76 86.41-10.43-1.83 9.3-5.07z"/>
        </g>
        <g class="node" transform="translate(4 400)">
            <ellipse cx="533" cy="-306" fill="none" stroke="#000" rx="57.49" ry="18"/>
            <text x="533" y="-300.95" font-family="Times,serif" font-size="14" text-anchor="middle">:data:cuisine</text>
        </g>
        <g stroke="#000" class="edge">
            <path fill="none" d="M746.84 30.23C709.6 41.37 637.35 62.98 588.15 77.7"/>
            <path d="m589.44 80.97-10.59-.49 8.58-6.22z"/>
        </g>
        <g class="node" transform="translate(4 400)">
            <ellipse cx="160" cy="-306" fill="none" stroke="#000" rx="46.75" ry="18"/>
            <text x="160" y="-300.95" font-family="Times,serif" font-size="14" text-anchor="middle">:data:logs</text>
        </g>
        <g stroke="#000" class="edge">
            <path fill="none" d="M743.83 24.41C664.93 28.78 429.1 43.79 236 76c-7.49 1.25-15.36 2.83-23.04 4.52"/>
            <path d="m213.93 83.89-10.53-1.18 8.96-5.64z"/>
        </g>
        <g class="node" transform="translate(4 400)">
            <ellipse cx="771" cy="-234" fill="none" stroke="#000" rx="72.85" ry="18"/>
            <text x="771" y="-228.95" font-family="Times,serif" font-size="14" text-anchor="middle">:feature:discover</text>
        </g>
        <g stroke="#000" class="edge">
            <path fill="none" d="M771.49 40.41c.68 23.98 1.9 67.45 2.71 96.17"/>
            <path d="m777.69 136.28-3.21 10.1-3.78-9.9z"/>
        </g>
        <g class="node" transform="translate(4 400)">
            <ellipse cx="1056" cy="-234" fill="none" stroke="#000" rx="79.5" ry="18"/>
            <text x="1056" y="-228.95" font-family="Times,serif" font-size="14" text-anchor="middle">:feature:bookmark</text>
        </g>
        <g stroke="#000" class="edge">
            <path fill="none" d="M798.27 23.45C866.29 25.22 1040.54 33.84 1076 76c14.26 16.95 7.94 42.25-.6 61.55"/>
            <path d="m1078.58 139.01-7.53 7.46 1.23-10.52z"/>
        </g>
        <g class="node" transform="translate(4 400)">
            <ellipse cx="1344" cy="-234" fill="none" stroke="#000" rx="75.92" ry="18"/>
            <text x="1344" y="-228.95" font-family="Times,serif" font-size="14" text-anchor="middle">:feature:mealplan</text>
        </g>
        <g stroke="#000" class="edge">
            <path fill="none" d="M798.12 23.62C888.06 26.03 1175.44 36.72 1258 76c29.6 14.08 55.26 41.97 71.52 62.79"/>
            <path d="m1332.17 136.49 3.23 10.09-8.82-5.87z"/>
        </g>
        <g class="node" transform="translate(4 400)">
            <ellipse cx="948" cy="-306" fill="none" stroke="#000" rx="114.82" ry="18"/>
            <text x="948" y="-300.95" font-family="Times,serif" font-size="14" text-anchor="middle">:feature:compose-logviewer</text>
        </g>
        <g stroke="#000" class="edge">
            <path fill="none" d="M793.92 31.87c26.47 10.23 70.85 27.39 105.86 40.93"/>
            <path d="m900.84 69.46 8.06 6.87-10.59-.34z"/>
        </g>
        <g stroke="red" stroke-width="2" class="edge">
            <path fill="none" d="M764.02 326.88c9.41 8.79 21.31 19.89 31.87 29.75"/>
            <path fill="red" d="m796.87 352.76 4.92 9.38-9.7-4.27z"/>
        </g>
        <g stroke="#000" class="edge">
            <path fill="none" d="M704.84 318.36c-71.73 12.52-217.7 38-299.64 52.31"/>
            <path d="m406.03 374.07-10.46-1.72 9.25-5.17z"/>
        </g>
        <g stroke="red" stroke-width="2" class="edge">
            <path fill="none" d="M670.46 254.88c13.48 9.53 30.82 21.79 45.58 32.23"/>
            <path fill="red" d="m716.69 283.28 6.14 8.63-10.18-2.91z"/>
        </g>
        <g stroke="#000" class="edge">
            <path fill="none" d="M616.54 253.79c-55.02 25.87-168.62 79.29-229.65 107.98"/>
            <path d="m388.4 364.93-10.54 1.09 7.56-7.42z"/>
        </g>
        <g stroke="red" stroke-width="2" class="edge">
            <path fill="none" d="M439.03 178.95c42.86 11.91 108.77 30.22 155.08 43.08"/>
            <path fill="red" d="m593.53 218.24 8.7 6.05-10.58.69z"/>
        </g>
        <g stroke="#000" class="edge">
            <path fill="none" d="M351.62 178.51c-24.87 8.25-55.12 21.5-76.62 41.49-26.5 24.64-29.3 36.88-38 72-3.85 15.53-8.49 22.44 0 36 11.87 18.98 32.7 31.33 52.99 39.3"/>
            <path d="m291.16 364 8.24 6.67-10.6-.08z"/>
        </g>
        <g stroke="#000" class="edge">
            <path fill="none" d="M291.8 112.02c-6.66 18.38-14.25 48.22-4.8 71.98 16.26 40.9 30.68 48.67 68 72 123.4 77.14 293.86 107.13 391.04 118.45"/>
            <path d="m746.18 370.94 9.54 4.6-10.32 2.36z"/>
        </g>
        <g stroke="#000" class="edge">
            <path fill="none" d="M294.08 112.41c-4.39 19.56-7.95 51.23 7.92 71.59 48.07 61.68 280.87 101.89 389.27 117.58"/>
            <path d="m691.7 298.1 9.41 4.88-10.4 2.05z"/>
        </g>
        <g stroke="#000" class="edge">
            <path fill="none" d="M299.32 112.27c1.36 20.36 6.88 53.68 27.68 71.73 36.46 31.65 167.38 44.66 250.34 49.82"/>
            <path d="m577.42 230.32 9.78 4.08-10.19 2.9z"/>
        </g>
        <g stroke="#000" class="edge">
            <path fill="none" d="M264.51 108.12c-17.28 8.54-36.6 21.55-46.51 39.88-19.94 36.87-55.49 86.09 10 180 14.08 20.18 37.72 32.8 60.16 40.63"/>
            <path d="m289.13 365.26 8.46 6.38-10.59.29z"/>
        </g>
        <g stroke="red" stroke-width="2" class="edge">
            <path fill="none" d="M321.01 110.88c12.93 9.34 29.49 21.28 43.75 31.57"/>
            <path fill="red" d="m365.23 138.48 6.06 8.69-10.16-3.02z"/>
        </g>
        <g stroke="#000" class="edge">
            <path fill="none" d="M533.13 112.4C527.09 144.44 519.22 213.39 552 256c49.77 64.69 140.97 97.15 203.49 112.51"/>
            <path d="m756.02 365.04 8.93 5.71-10.54 1.1z"/>
        </g>
        <g stroke="#000" class="edge">
            <path fill="none" d="M536.4 112.37c-.16 32.6 4.28 103.33 42.6 143.63 28.55 30.03 73.94 43.12 110.34 48.79"/>
            <path d="m689.4 301.26 9.42 4.85-10.38 2.08z"/>
        </g>
        <g stroke="#000" class="edge">
            <path fill="none" d="M550.17 111.85c19.28 24.66 55.33 70.78 77.87 99.62"/>
            <path d="m630.51 208.95 3.41 10.03-8.92-5.72z"/>
        </g>
        <g stroke="#000" class="edge">
            <path fill="none" d="M525.62 112.03c-32.04 47.99-123.25 184.56-161.93 242.48"/>
            <path d="m366.62 356.42-8.46 6.38 2.64-10.26z"/>
        </g>
        <g stroke="#000" class="edge">
            <path fill="none" d="M507.1 109.85c-20.66 10.25-48.37 24.01-70.95 35.22"/>
            <path d="m437.73 148.19-10.51 1.31 7.4-7.58z"/>
        </g>
        <g stroke="#000" class="edge">
            <path fill="none" d="M167.38 112.17c4.27 18.77 12.89 49.2 27.62 71.83 25.56 39.27 38.32 45.56 77 72 61.05 41.74 79.13 50.88 150 72 108.25 32.26 238.82 44.91 320.65 49.85"/>
            <path d="m742.82 374.35 9.79 4.07-10.19 2.92z"/>
        </g>
        <g stroke="#000" class="edge">
            <path fill="none" d="M173.9 112.02c11.79 19.2 32.94 50.54 57.1 71.98 47.67 42.3 63.72 51.34 124 72 113.78 39 255.35 49.44 333.43 52.15"/>
            <path d="m688.08 304.64 9.89 3.81-10.11 3.18z"/>
        </g>
        <g stroke="#000" class="edge">
            <path fill="none" d="M182.69 110.78c25.3 20.44 72.66 55.53 119.31 73.22 91.02 34.51 203.6 46.58 275.12 50.79"/>
            <path d="m576.93 231.27 9.8 4.04-10.18 2.95z"/>
        </g>
        <g stroke="#000" class="edge">
            <path fill="none" d="M126.5 104.82C104.72 112.66 79.07 126.07 66 148c-8.19 13.74-5.94 21.14 0 36 32.79 82.03 63.24 95.4 137 144 27.03 17.81 60.86 30.7 88.83 39.3"/>
            <path d="m292.59 363.88 8.59 6.19-10.58.52z"/>
        </g>
        <g stroke="#000" class="edge">
            <path fill="none" d="M200 105.86c38.52 11.62 99.98 30.17 143.81 43.39"/>
            <path d="m344.82 145.9 8.56 6.24-10.59.46z"/>
        </g>
        <g stroke="#000" class="edge">
            <path fill="none" d="M778.95 184.38c5.47 24.13 15.64 69.17 24.05 107.62 4.42 20.19 9.28 42.99 12.98 60.45"/>
            <path d="m819.38 351.61-1.36 10.5-5.49-9.06z"/>
        </g>
        <g stroke="#000" class="edge">
            <path fill="none" d="M771.57 184.41c-4.75 24.09-13.38 67.84-19.04 96.56"/>
            <path d="m756.04 281.27-5.37 9.13-1.5-10.48z"/>
        </g>
        <g stroke="#000" class="edge">
            <path fill="none" d="M746.18 182.88c-17.86 9.85-41.01 22.61-60.35 33.27"/>
            <path d="m687.6 219.17-10.44 1.76 7.07-7.89z"/>
        </g>
        <g stroke="#000" class="edge">
            <path fill="none" d="M835.42 176.44c80.54 12.58 223.12 34.86 311.08 48.61"/>
            <path d="m1146.9 221.57 9.34 5-10.42 1.91z"/>
        </g>
        <g stroke="#000" class="edge">
            <path fill="none" d="M767.96 184.19c-9.01 19.96-26.43 52.58-50.96 71.81-92.54 72.53-229.43 104.11-308.47 116.97"/>
            <path d="m409.22 376.41-10.42-1.91 9.33-5.01z"/>
        </g>
        <g stroke="#000" class="edge">
            <path fill="none" d="M1063.06 184.37C1067.73 217 1072.6 287.75 1036 328c-18.96 20.85-86.93 35.25-141.25 43.72"/>
            <path d="m895.3 375.18-10.41-1.96 9.36-4.96z"/>
        </g>
        <g stroke="#000" class="edge">
            <path fill="none" d="M1038.63 183.49C1012.41 203.08 965.98 235.65 922 256c-39.9 18.47-87.86 32.47-123.47 41.43"/>
            <path d="m799.45 300.81-10.55-1.01 8.87-5.79z"/>
        </g>
        <g stroke="#000" class="edge">
            <path fill="none" d="M997.87 177.56c-77.67 13.19-209.84 35.65-287.58 48.86"/>
            <path d="m711.16 229.82-10.44-1.78 9.27-5.12z"/>
        </g>
        <g stroke="#000" class="edge">
            <path fill="none" d="M1095.77 182.36c23.72 10.19 55.09 23.66 80.74 34.67"/>
            <path d="m1177.55 213.67 7.81 7.16-10.57-.73z"/>
        </g>
        <g stroke="#000" class="edge">
            <path fill="none" d="M1059.06 184.37C1056.2 218.3 1044.65 293.11 998 328c-23.24 17.38-425.29 40.81-586.2 49.54"/>
            <path d="m412.32 381.01-10.17-2.95 9.79-4.04z"/>
        </g>
        <g stroke="#000" class="edge">
            <path fill="none" d="M1351.58 184.41c2.97 19.57 4.45 51.24-11.58 71.59-54.25 68.87-312.1 104.28-442.34 118.02"/>
            <path d="m898.04 377.5-10.31-2.45 9.59-4.51z"/>
        </g>
        <g stroke="#000" class="edge">
            <path fill="none" d="M1346.69 184.26c-2.56 20.67-10.17 54.63-32.69 71.74-39.88 30.29-371.75 45.83-508.48 51"/>
            <path d="m805.71 310.49-10.12-3.12 9.86-3.87z"/>
        </g>
        <g stroke="#000" class="edge">
            <path fill="none" d="M1278.97 173.9c-134.57 13.46-430.4 43.04-563.61 56.36"/>
            <path d="m715.94 233.72-10.3-2.48 9.6-4.48z"/>
        </g>
        <g stroke="#000" class="edge">
            <path fill="none" d="M1319.32 183.06c-17.03 9.54-38.85 21.76-57.41 32.15"/>
            <path d="m1263.73 218.2-10.43 1.83 7.01-7.94z"/>
        </g>
        <g stroke="#000" class="edge">
            <path fill="none" d="M1034.28 106.9c47.38 8.73 100.34 22.34 114.72 41.1 9.73 12.7 4.37 20.61 0 36-5.14 18.09-73.67 133.1-89 144-46.01 32.72-108.67 45.73-158.15 50.69"/>
            <path d="m902.32 382.16-10.27-2.59 9.65-4.38z"/>
        </g>
        <g stroke="#000" class="edge">
            <path fill="none" d="M946.61 112.26C934.74 149.35 905.67 234.98 884 256c-22.79 22.1-55.8 35.24-83.72 42.91"/>
            <path d="m801.5 302.21-10.56-.91 8.82-5.87z"/>
        </g>
        <g stroke="#000" class="edge">
            <path fill="none" d="M860.4 105.22C796.84 113.88 719.08 128.08 693 148c-19.55 14.93-31.27 40.71-37.82 60.7"/>
            <path d="m658.56 209.64-6.22 8.57-.49-10.58z"/>
        </g>
        <g stroke="#000" class="edge">
            <path fill="none" d="M1036.57 106.54c56 9.11 123.1 23.3 145.43 41.46 18.76 15.25 29.32 41 35.01 60.89"/>
            <path d="m1220.34 207.77-.89 10.56-5.89-8.81z"/>
        </g>
        <g stroke="#000" class="edge">
            <path fill="none" d="M951.81 112.3c-1.23 31.87-8.04 100.57-42.81 143.7-35.74 44.34-52.62 52.15-106 72-70.15 26.09-282.53 42.39-391.29 49.24"/>
            <path d="m411.96 380.74-10.2-2.88 9.76-4.11z"/>
        </g>
        <g stroke="#000" class="edge">
            <path fill="none" d="M864.51 106.01c-111.75 14.07-302.63 38.11-402.77 50.71"/>
            <path d="m462.43 160.16-10.35-2.22 9.48-4.72z"/>
        </g>
    </g>
</svg>
