<svg xmlns="http://www.w3.org/2000/svg" width="404pt" height="260pt" viewBox="0 0 403.51 260">
    <g class="graph">
        <path fill="#fff" d="M0 260V0h403.51v260z"/>
        <g class="node" transform="translate(4 256)">
            <ellipse cx="211.06" cy="-234" fill="none" stroke="#000" rx="75.92" ry="18"/>
            <text x="211.06" y="-228.95" font-family="Times,serif" font-size="14" text-anchor="middle">:feature:mealplan</text>
        </g>
        <g class="node" transform="translate(4 256)">
            <ellipse cx="82.06" cy="-162" fill="none" stroke="#000" rx="82.06" ry="18"/>
            <text x="82.06" y="-156.95" font-family="Times,serif" font-size="14" text-anchor="middle">:core:designsystem</text>
        </g>
        <g stroke="#000" class="edge">
            <path fill="none" d="M185.79 38.88c-17.77 9.65-40.69 22.08-60.07 32.6"/>
            <path d="m127.45 74.52-10.46 1.69 7.12-7.84z"/>
        </g>
        <g class="node" transform="translate(4 256)">
            <ellipse cx="267.06" cy="-90" fill="none" stroke="#000" rx="47.26" ry="18"/>
            <text x="267.06" y="-84.95" font-family="Times,serif" font-size="14" text-anchor="middle">:core:data</text>
        </g>
        <g stroke="#000" class="edge">
            <path fill="none" d="M221.93 40.41c9.54 24.19 26.9 68.23 38.22 96.94"/>
            <path d="m263.34 135.89.42 10.59-6.93-8.02z"/>
        </g>
        <g class="node" transform="translate(4 256)">
            <ellipse cx="196.06" cy="-18" fill="none" stroke="#000" rx="68.75" ry="18"/>
            <text x="196.06" y="-12.95" font-family="Times,serif" font-size="14" text-anchor="middle">:core:commons</text>
        </g>
        <g stroke="#000" class="edge">
            <path fill="none" d="M213.86 40.15c-2.58 36.71-8.64 123.19-11.8 168.32"/>
            <path d="m205.56 208.53-4.19 9.73-2.79-10.22z"/>
        </g>
        <g class="node" transform="translate(4 256)">
            <ellipse cx="318.06" cy="-162" fill="none" stroke="#000" rx="60.05" ry="18"/>
            <text x="318.06" y="-156.95" font-family="Times,serif" font-size="14" text-anchor="middle">:core:domain</text>
        </g>
        <g stroke="red" stroke-width="2" class="edge">
            <path fill="none" d="M240.15 39.41c14.42 9.44 32.73 21.42 48.38 31.65"/>
            <path fill="red" d="m288.88 67.11 6.45 8.41-10.28-2.55z"/>
        </g>
        <g stroke="red" stroke-width="2" class="edge">
            <path fill="none" d="M254.59 183.24c-8.83 8.7-19.9 19.61-29.75 29.33"/>
            <path fill="red" d="m228.66 213.71-9.57 4.53 4.66-9.51z"/>
        </g>
        <g class="node" transform="translate(4 256)">
            <ellipse cx="340.06" cy="-18" fill="none" stroke="#000" rx="55.45" ry="18"/>
            <text x="340.06" y="-12.95" font-family="Times,serif" font-size="14" text-anchor="middle">:core:model</text>
        </g>
        <g stroke="#000" class="edge">
            <path fill="none" d="M287.99 183.24c9.15 8.77 20.62 19.77 30.81 29.54"/>
            <path d="m321.08 210.12 4.8 9.44-9.65-4.39z"/>
        </g>
        <g stroke="red" stroke-width="2" class="edge">
            <path fill="none" d="M309.71 111.95c-5.95 8.16-13.21 18.14-19.84 27.23"/>
            <path fill="red" d="m293.79 139.74-8.72 6.02 3.06-10.14z"/>
        </g>
        <g stroke="#000" class="edge">
            <path fill="none" d="M324.76 112.41c3.71 23.98 10.45 67.45 14.9 96.17"/>
            <path d="m343.1 207.98-1.92 10.41-4.99-9.34z"/>
        </g>
    </g>
</svg>
